<?xml version="1.0" standalone="no"?>
<!DOCTYPE svg PUBLIC "-//W3C//DTD SVG 20010904//EN"
 "http://www.w3.org/TR/2001/REC-SVG-20010904/DTD/svg10.dtd">
<svg version="1.0" xmlns="http://www.w3.org/2000/svg"
 width="1251.000000pt" height="1251.000000pt" viewBox="0 0 1251.000000 1251.000000"
 preserveAspectRatio="xMidYMid meet">
<metadata>
Created by potrace 1.11, written by Peter Selinger 2001-2013
</metadata>
<g transform="translate(0.000000,1251.000000) scale(0.100000,-0.100000)"
fill="#000000" stroke="none">
<path d="M3255 8763 c-105 -6 -287 -33 -395 -60 -485 -118 -835 -428 -964
-853 -61 -205 -60 -172 -66 -1282 -5 -1011 -5 -1017 -26 -1045 -34 -46 -131
-119 -208 -157 -135 -67 -303 -110 -468 -121 -46 -3 -107 -8 -135 -11 l-53 -5
0 -384 0 -383 67 -6 c275 -24 398 -48 532 -105 135 -57 272 -165 286 -223 3
-13 6 -475 8 -1028 3 -897 5 -1014 21 -1090 64 -322 204 -565 428 -744 264
-212 575 -315 1026 -342 l112 -6 0 350 0 350 -97 6 c-397 28 -628 139 -726
348 -64 137 -61 81 -67 1223 -5 939 -8 1045 -23 1096 -62 207 -207 402 -400
542 -17 12 -15 15 29 47 121 86 269 268 328 404 63 143 59 72 66 1211 6 1142
3 1086 67 1223 98 209 329 320 726 348 l97 6 0 349 0 349 -52 -2 c-29 -1 -80
-3 -113 -5z"/>
<path d="M7770 8423 l0 -350 103 -7 c436 -29 665 -157 756 -424 l26 -77 5
-1040 c6 -1030 6 -1041 28 -1118 55 -198 174 -364 386 -539 l29 -24 -64 -51
c-172 -138 -299 -322 -351 -510 -22 -77 -22 -88 -28 -1118 l-5 -1040 -26 -77
c-91 -267 -320 -395 -756 -423 l-103 -7 0 -350 0 -351 113 7 c346 21 568 75
800 193 312 159 534 427 626 753 36 132 51 263 51 467 l0 192 593 4 c500 3
604 7 667 20 274 60 489 176 681 367 157 157 259 321 329 529 61 183 61 176
58 1381 l-3 1095 -28 100 c-138 504 -495 854 -997 978 -80 19 -121 21 -690 26
l-605 6 -6 295 c-6 313 -14 382 -65 537 -61 188 -148 328 -293 474 -268 267
-600 393 -1118 425 l-113 7 0 -350z m2657 -2083 c260 -29 466 -196 550 -444
l28 -81 0 -1025 c0 -1145 4 -1078 -71 -1220 -89 -170 -233 -283 -418 -330 -74
-19 -112 -20 -618 -20 l-538 0 0 440 c0 347 3 448 13 473 20 47 122 137 205
181 132 69 320 120 482 131 47 3 109 8 138 11 l52 5 0 383 0 384 -31 6 c-17 3
-60 6 -94 6 -154 0 -408 64 -549 138 -81 42 -183 133 -203 179 -10 25 -13 116
-13 406 0 206 3 377 7 380 10 11 968 8 1060 -3z"/>
</g>
</svg>
